# xmcd CD database file
#
# Track frame offsets:
#	150
#	14189
#	26422
#	39709
#	54764
#	68667
#	82829
#	93962
#	106714
#	120494
#	133322
#	149989
#	163709
#	178247
#	191664
#	206284
#	217487
#	231019
#	242672
#	261692
#
# Disc length: 3669 seconds
#
# Revision: 4
# Processed by: cddbd v1.5.2PL0 Copyright (c) Steve Scherf et al.
# Submitted via: CDex 1.70beta2
#
DISCID=2a0e5314
DTITLE=blues and soul records - PICKIN' THE BLUES - The History of Blues Guitar 1923-1966
DYEAR=2011
DGENRE=Blues
TTITLE0=01-Guitar Blues - SYLVESTER WEAVER
TTITLE1=02-Nappy Head Blues - BOBBY GRANT
TTITLE2=03-Black Horse Blues - BLIND LEMON JEFFERSON
TTITLE3=04-Georgia Bound - BLIND BLAKE
TTITLE4=05-What's The Matter Blues - FRANK STOKES w/DAN SANE
TTITLE5=06-Bird Nest Bound - CHARLEY PATTON w/WILLIE BROWN
TTITLE6=07-Love Story Blues - LONNIE JOHNSON
TTITLE7=08-Back Door Blues - SCRAPPER BLACKWELL
TTITLE8=09-T-Bone Boogie - T-BONE WALKER
TTITLE9=10-Down Home Child - SUNNYLAND SLIM w/ROBERT JR. LOCKWOOD
TTITLE10=11-Johnny's After Hours (Lazy Blues) (inst.) - JOHNNY MOORE'S THREE BLAZERS
TTITLE11=12-Blues After Hours (inst.) - PEE WEE CRAYTON
TTITLE12=13-Lonesome Dog Blues (alt.) - LIGHTNIN' HOPKINS
TTITLE13=14-Need Somebody - JOHN LEE HOOKER
TTITLE14=15-'Bout The Break Of Day  - JUNIOR WELLS w/MUDDY WATERS and LOUIS MYERS
TTITLE15=16-Coming Home - ELMORE JAMES and THE BROOMDUSTERS feat. EDDIE TAYLOR
TTITLE16=17-Backbone Boogie (inst.) - MEMPHIS SLIM feat. MATT MURPHY
TTITLE17=18-The Leading Brand (inst.) - EARL HOOKER
TTITLE18=19-You're Breaking My Heart - B.B. KING
TTITLE19=20-From My Heart - FENTON ROBINSON
EXTD=YEAR: 2011
EXTT0=
EXTT1=
EXTT2=
EXTT3=
EXTT4=
EXTT5=
EXTT6=
EXTT7=
EXTT8=
EXTT9=
EXTT10=
EXTT11=
EXTT12=
EXTT13=
EXTT14=
EXTT15=
EXTT16=
EXTT17=
EXTT18=
EXTT19=
PLAYORDER=
